:SAMPLES-PER-SECOND 30
:FULLY-SPECIFIED
:DEGREES
1
root  5.93018 40.8811 -5.85409 -87.7666 -87.9301 83.2523
RightUpLeg  2.81581 -9.76849 -8.77441
RightLeg  7.03867 -2.10905 2.68549
RightFoot  -3.99565 -0.0695956 0.659375
RightToes  0.00048216 0.542163 -0.142577
Spine  5.24543 -0.212719 -3.21309
Spine1  2.02874 -0.682961 2.23913
HEad  2.613 -7.68016 -2.73334
LeftShoulder1  0.694531 -1.57765 -5.84995
LeftArm  -21.9027 9.79145 -8.17678
LeftForeArm  -2.21715 0.360734 -0.0738804
LeftHand  -0.25398 0.0180481 5.50724
RightShoulder  0.513913 0.254514 6.05718
RightArm  -21.7387 -4.34016 2.85935
RightForeArm  1.3897 0.807756 2.1911
RightHand  -0.790423 1.64194 -13.2038
LeftUpLeg  2.67489 3.59988 -0.515936
LeftLeg  1.65332 12.8581 -4.05769
LeftFoot  -0.715698 -0.184618 2.09951
LeftToes  1.06244e-005 4.65856e-005 -8.18505e-006
2
root  5.91295 40.8811 -5.8431 -88.6964 -87.9441 84.1689
RightUpLeg  2.84412 -9.75985 -8.77648
RightLeg  7.04774 -2.08051 2.66871
RightFoot  -4.00504 -0.0686039 0.643983
RightToes  0.00048216 0.542163 -0.142577
Spine  5.24526 -0.195223 -3.2612
Spine1  2.03217 -0.681579 2.31077
HEad  2.63752 -7.61954 -2.75862
LeftShoulder1  0.70388 -1.60938 -5.96043
LeftArm  -21.8655 9.89225 -8.13924
LeftForeArm  -2.24975 0.32157 -0.0820923
LeftHand  -0.25398 0.0180481 5.50724
RightShoulder  0.514557 0.253953 5.96256
RightArm  -21.7937 -4.31089 2.96176
RightForeArm  1.57147 0.841859 2.17628
RightHand  -0.732799 1.31711 -12.8111
LeftUpLeg  2.7384 3.61188 -0.516202
LeftLeg  1.61508 12.8894 -4.07289
LeftFoot  -0.726375 -0.182804 2.07128
LeftToes  1.06244e-005 4.65856e-005 -8.18505e-006
3
root  5.88429 40.8811 -5.82479 -89.9935 -87.9566 85.4508
RightUpLeg  2.87812 -9.76917 -8.79351
RightLeg  7.08208 -2.02525 2.65429
RightFoot  -4.02465 -0.0674105 0.62546
RightToes  0.00048216 0.542163 -0.142577
Spine  5.27655 -0.172322 -3.32699
Spine1  2.00596 -0.666881 2.34226
HEad  2.76124 -7.58619 -2.78386
LeftShoulder1  0.707103 -1.61938 -6.00097
LeftArm  -21.8643 10.0409 -8.17715
LeftForeArm  -2.24165 0.26177 -0.0737302
LeftHand  -0.25398 0.0180481 5.50724
RightShoulder  0.520037 0.297745 5.96448
RightArm  -21.8569 -4.26302 2.98444
RightForeArm  1.9572 0.848076 2.14372
RightHand  -0.640082 0.816032 -12.0737
LeftUpLeg  2.82787 3.62651 -0.523243
LeftLeg  1.56406 12.9291 -4.09752
LeftFoot  -0.733098 -0.182738 2.07026
LeftToes  1.06244e-005 4.65856e-005 -8.18505e-006
4
root  5.8586 40.8811 -5.8084 -90.683 -87.9598 86.1558
RightUpLeg  2.87591 -9.79492 -8.82336
RightLeg  7.12606 -1.9794 2.65368
RightFoot  -4.05289 -0.0684968 0.64232
RightToes  0.00048216 0.542163 -0.142577
Spine  5.30676 -0.160733 -3.37041
Spine1  1.98749 -0.643129 2.27706
HEad  2.86715 -7.50562 -2.78031
LeftShoulder1  0.691627 -1.5541 -5.85597
LeftArm  -22.0086 10.1231 -8.36274
LeftForeArm  -2.10041 0.219559 -0.0106396
LeftHand  -0.25398 0.0180481 5.50724
RightShoulder  0.532744 0.353828 6.11186
RightArm  -21.8584 -4.22772 2.88872
RightForeArm  2.08484 0.871108 2.14216
RightHand  -0.609793 0.661586 -11.7837
LeftUpLeg  2.8558 3.63571 -0.535925
LeftLeg  1.55933 12.9445 -4.11549
LeftFoot  -0.757278 -0.184642 2.09987
LeftToes  1.06244e-005 4.65856e-005 -8.18505e-006
5
root  5.83729 40.8811 -5.79745 -90.6819 -87.9802 86.2165
RightUpLeg  2.84144 -9.80072 -8.81927
RightLeg  7.13128 -1.97593 2.66143
RightFoot  -4.07068 -0.0709231 0.679978
RightToes  0.00048216 0.542163 -0.142577
Spine  5.26044 -0.160182 -3.37928
Spine1  2.04621 -0.623357 2.17943
HEad  2.83018 -7.34108 -2.71938
LeftShoulder1  0.668038 -1.44309 -5.66367
LeftArm  -22.2433 10.1037 -8.579
LeftForeArm  -1.90803 0.213735 0.0856352
LeftHand  -0.25398 0.0180481 5.50724
RightShoulder  0.540212 0.374622 6.24517
RightArm  -21.8543 -4.21338 2.82579
RightForeArm  1.84033 0.943992 2.1678
RightHand  -0.650511 0.879048 -12.1474
LeftUpLeg  2.79712 3.6673 -0.513643
LeftLeg  1.62126 12.9084 -4.1334
LeftFoot  -0.822796 -0.185677 2.11597
LeftToes  1.06244e-005 4.65856e-005 -8.18505e-006
